<svg width="122" height="122" viewBox="0 0 122 122" fill="none" xmlns="http://www.w3.org/2000/svg">
<circle cx="61" cy="61" r="61" fill="white"/>
<path d="M21.027 40.2027C35.9644 15.0229 59.4686 -2.13416 43.6774 23.0897C38.6977 31.044 33.9366 38.5415 30.6002 43.9127C43.8985 26.7691 58.0555 8.79151 41.3592 31.7414C22.8286 57.2125 23.3566 55.5741 30.6002 43.9127C22.3411 54.56 14.4133 64.8856 14.4133 64.8856C14.4133 64.8856 6.08965 65.3826 21.027 40.2027Z" fill="#0B0240" stroke="#1C125B"/>
<path d="M103.716 83.6372C87.595 107.314 63.3308 122.624 80.3043 98.9563C85.6569 91.4927 90.7693 84.4619 94.3575 79.4205C80.2645 95.3478 65.2748 112.037 83.0388 90.6468C102.754 66.9071 102.148 68.4752 94.3575 79.4205C103.11 69.5288 111.517 59.9308 111.517 59.9308C111.517 59.9308 119.836 59.9599 103.716 83.6372Z" fill="#0B0240" stroke="#1C125B"/>
<path d="M59.28 58L59.04 68.92L64.08 69.4C64.08 70.6 63.76 71.8 63.12 73H49.26L49.08 70.9C51.52 70.06 53.36 69.58 54.6 69.46C54.56 66.98 54.46 63.16 54.3 58L41.7 34.54C40.1 34.22 38.3 33.74 36.3 33.1L36.48 31H52.08C52.76 32.28 53.1 33.48 53.1 34.6C51.14 34.72 49.34 34.84 47.7 34.96L56.64 53.14H57.3L66.24 34.54C64.64 34.3 62.76 33.82 60.6 33.1L60.78 31H75.3C75.98 32.28 76.32 33.48 76.32 34.6C74.56 34.72 72.86 34.84 71.22 34.96L59.28 58Z" fill="#0B0240"/>
<path d="M54.72 78.1L54.54 86.92L59.58 87.4C59.58 88.52 59.24 89.72 58.56 91H44.76L44.58 88.9C46.46 88.26 48.3 87.78 50.1 87.46C49.7 71.94 49.38 60.3 49.14 52.54C47.66 52.26 45.88 51.78 43.8 51.1L43.98 49H58.98C59.66 50.28 60 51.48 60 52.6C58 52.76 56.4 52.84 55.2 52.84C55.12 57 55.04 60.76 54.96 64.12C54.92 67.48 54.88 69.84 54.84 71.2L69.18 53.08L64.38 52.6C64.38 51.48 64.72 50.28 65.4 49H80.64L80.82 51.64C78.98 52.28 77.18 52.76 75.42 53.08L63.6 67.3L77.4 86.92L82.44 87.4C82.44 88.52 82.1 89.72 81.42 91H73.92L60.3 71.38L54.72 78.1Z" fill="#0B0240"/>
</svg>
